<svg xmlns="http://www.w3.org/2000/svg" xmlns:xlink="http://www.w3.org/1999/xlink" width="0" height="0" style="position:absolute">
	
		<symbol id="arrow" viewBox="0 0 40 12.65">
			<rect y="5.81" width="40" height="1" rx=".5" ry=".5"></rect><path d="M.32 6.13a.5.5 0 0 1 .71 0l5.65 5.65a.502.502 0 0 1-.71.71L.32 6.84a.5.5 0 0 1 0-.71z"></path><path d="M6.68.13a.5.5 0 0 1 0 .71L1.03 6.49a.502.502 0 0 1-.71-.71L5.97.13a.5.5 0 0 1 .71 0z"></path>
		</symbol>
	
		<symbol id="burger" viewBox="0 0 384.97 192.48">
			<title>burger</title><path d="M12 24.06h360.94a12 12 0 1 0 0-24.06H12a12 12 0 0 0 0 24.06zM372.94 84.21H12a12 12 0 0 0 0 24.06h360.94a12 12 0 1 0 0-24.06zM372.94 168.42H132.33a12 12 0 0 0 0 24.06h240.61a12 12 0 1 0 0-24.06z"></path>
		</symbol>
	
		<symbol id="calendar" viewBox="0 0 28.71 29.12">
			<path d="M21.5 6.15a2 2 0 0 0 2-2V2a2 2 0 0 0-4 0v2.13a2 2 0 0 0 2 2.02z"></path><path d="M28.67 3.49h-4.06v1a3.08 3.08 0 1 1-6.15 0v-1h-8.21v1a3.08 3.08 0 1 1-6.15 0v-1L0 3.44v25.68h28.71zm-2 23.59H2.05V10.67h24.61v16.41z"></path><path d="M7.15 6.15a2 2 0 0 0 2-2V2a2 2 0 1 0-4 0v2.13a2 2 0 0 0 2 2.02zM10.26 12.87h3.23v2.85h-3.23zM15.48 12.87h3.23v2.85h-3.23zM20.33 12.87h3.23v2.85h-3.23zM10.26 17.61h3.23v2.85h-3.23zM15.48 17.61h3.23v2.85h-3.23zM20.33 17.61h3.23v2.85h-3.23zM10.26 22.44h3.23v2.85h-3.23zM5.13 17.61h3.23v2.85H5.13zM5.13 22.44h3.23v2.85H5.13zM15.48 22.44h3.23v2.85h-3.23zM20.33 22.44h3.23v2.85h-3.23z"></path>
		</symbol>
	
		<symbol id="close" viewBox="0 0 357 357">
			<title>close</title><path d="M357 35.7L321.3 0 178.5 142.8 35.7 0 0 35.7l142.8 142.8L0 321.3 35.7 357l142.8-142.8L321.3 357l35.7-35.7-142.8-142.8L357 35.7z"></path>
		</symbol>
	
		<symbol id="fb" viewBox="0 0 200.72 430.11">
			<path d="M43.38 83.3v59.22H0v72.41h43.38v215.18h89.12V214.94h59.8s5.6-34.73 8.31-72.69h-67.77V92.74c0-7.4 9.72-17.35 19.32-17.35h48.56V0h-66C41.18 0 43.38 72.48 43.38 83.3z"></path>
		</symbol>
	
		<symbol id="inst" viewBox="0 0 438.54 438.54">
			<path d="M422 16.56Q405.42 0 382.3 0h-326Q33.12 0 16.56 16.56T0 56.24v326.05Q0 405.41 16.56 422t39.69 16.57h326q23.11 0 39.69-16.57t16.56-39.68v-326q.03-23.19-16.5-39.76zM157.46 158q25.85-25 62.1-25 36.54 0 62.38 25t25.84 60.39q0 35.4-25.84 60.38t-62.38 25q-36.26 0-62.1-25t-25.84-60.38q0-35.39 25.84-60.39zm231.4 212.57a16.64 16.64 0 0 1-5.14 12.43 17 17 0 0 1-12.28 5H66.24a17.07 17.07 0 0 1-17.42-17.41v-185h40.26A123.18 123.18 0 0 0 83.37 223q0 54.82 40 93.51t96.22 38.68a137.28 137.28 0 0 0 68.53-17.7 133.38 133.38 0 0 0 49.67-48.11A126.53 126.53 0 0 0 356 223a123.08 123.08 0 0 0-5.72-37.4h38.55v185zm0-255a19.5 19.5 0 0 1-19.7 19.7h-49.68a19.48 19.48 0 0 1-19.69-19.7V68.52a19.2 19.2 0 0 1 5.7-13.85 18.82 18.82 0 0 1 14-5.85h49.68a18.8 18.8 0 0 1 14 5.85 19.17 19.17 0 0 1 5.71 13.85z"></path>
		</symbol>
	
		<symbol id="logo-dev" viewBox="0 0 165.05 47.25">
			<path d="M.16 37.54a.62.62 0 0 1 .47-.18h6a4.76 4.76 0 0 1 4 2.13 4.88 4.88 0 0 1 .79 2.62v.37a4.73 4.73 0 0 1-2 3.84 4.8 4.8 0 0 1-2.81.9h-6a.65.65 0 0 1-.46-.16.58.58 0 0 1-.15-.47V41.4a.57.57 0 0 1 .51-.62h.85a.69.69 0 0 1 .45.16.58.58 0 0 1 .19.46V44c0 .67.12 1 .37 1.13a.79.79 0 0 0 .34.1h2.72a4.62 4.62 0 0 0 2.18-.28 3 3 0 0 0 1.48-1.31 2.72 2.72 0 0 0 .34-1.31A3 3 0 0 0 8.18 40a3.71 3.71 0 0 0-2.35-.64H.64a.62.62 0 0 1-.45-.16.58.58 0 0 1-.19-.49V38a.68.68 0 0 1 .16-.46zM19.11 38a.65.65 0 0 1 .16-.46.62.62 0 0 1 .47-.18h10.2a.65.65 0 0 1 .46.16.62.62 0 0 1 .18.47v.72a.67.67 0 0 1-.16.45.58.58 0 0 1-.47.18h-10.2a.62.62 0 0 1-.45-.16.58.58 0 0 1-.18-.47zm0 3.39a.57.57 0 0 1 .51-.62h10.32a.68.68 0 0 1 .45.15.58.58 0 0 1 .18.46v.73a.62.62 0 0 1-.16.45.58.58 0 0 1-.47.18H19.75a.65.65 0 0 1-.46-.16.62.62 0 0 1-.18-.47zm0 4.47a.61.61 0 0 1 .16-.45.64.64 0 0 1 .47-.17h10.2a.67.67 0 0 1 .45.16.58.58 0 0 1 .18.47v.76a.62.62 0 0 1-.16.45.58.58 0 0 1-.47.18H19.75a.65.65 0 0 1-.46-.16.58.58 0 0 1-.18-.47zM40.83 38.46l1 2 1.62 3.27c.18.24.33.37.45.37h.1q.34 0 .93-1.35l2.49-5a.89.89 0 0 1 .76-.44h1c.28 0 .44.12.48.35v.07a4.6 4.6 0 0 1-.52 1.27l-2.59 5.24-1.25 2.55a.93.93 0 0 1-.8.42h-1.08c-.48 0-.83-.31-1.06-.93q-4-8-4.14-8.4v-.17c0-.21.15-.32.46-.35h1c.49 0 .88.37 1.15 1.1zM57.3 45.4a.64.64 0 0 1 .47-.17h6.49c1 0 1.52-.08 1.66-.25a1.15 1.15 0 0 0 .6-1 1.21 1.21 0 0 0-.89-1.12 4.28 4.28 0 0 0-1.38-.11h-4.36a2.6 2.6 0 0 1-2.7-1.93 3.84 3.84 0 0 1-.08-.76 2.55 2.55 0 0 1 1.6-2.49 2.8 2.8 0 0 1 1.07-.18H68a.6.6 0 0 1 .44.16.62.62 0 0 1 .18.47v.72a.68.68 0 0 1-.15.45.58.58 0 0 1-.46.18h-7.09c-.85 0-1.33.09-1.42.27a.53.53 0 0 0-.2.45c0 .35.26.57.79.66a7.37 7.37 0 0 0 .94 0h4.39a3 3 0 0 1 2.94 1.87 3.33 3.33 0 0 1 .25 1.32 3.09 3.09 0 0 1-3 3.21h-7.84a.65.65 0 0 1-.46-.16.58.58 0 0 1-.18-.47v-.73a.63.63 0 0 1 .17-.39zM75.83 38a.65.65 0 0 1 .16-.46.62.62 0 0 1 .47-.18h10.19a.65.65 0 0 1 .46.16.62.62 0 0 1 .18.47v.72a.67.67 0 0 1-.16.45.58.58 0 0 1-.47.18H76.41a.67.67 0 0 1-.45-.16.58.58 0 0 1-.18-.47V38zm0 3.39a.57.57 0 0 1 .51-.62h10.31a.68.68 0 0 1 .45.15.58.58 0 0 1 .18.46v.73a.67.67 0 0 1-.16.45.58.58 0 0 1-.47.18H76.41a.65.65 0 0 1-.46-.16.62.62 0 0 1-.18-.47v-.73zm0 4.47a.62.62 0 0 1 .17-.46.64.64 0 0 1 .47-.17h10.18a.62.62 0 0 1 .45.16.58.58 0 0 1 .18.47v.76a.62.62 0 0 1-.16.45.58.58 0 0 1-.47.18H76.41a.65.65 0 0 1-.46-.16.6.6 0 0 1-.12-.47zM102.93 37.36a4.76 4.76 0 0 1 4 2.13 4.88 4.88 0 0 1 .79 2.62v.37a4.73 4.73 0 0 1-2 3.84 4.86 4.86 0 0 1-2.8.9h-2.76a4.78 4.78 0 0 1-4.79-4.75v-.32a4.78 4.78 0 0 1 4.75-4.79h2.81zm-5.51 4.93a3 3 0 0 0 1.18 2.33 3.54 3.54 0 0 0 2.32.65h.75a4.91 4.91 0 0 0 2.15-.27 3.11 3.11 0 0 0 1.53-1.42 2.8 2.8 0 0 0 .31-1.27 3 3 0 0 0-1.25-2.31 3.71 3.71 0 0 0-2.29-.59h-.7a4.89 4.89 0 0 0-2.11.25 3 3 0 0 0-1.13.79 3.12 3.12 0 0 0-.76 1.86zM115.53 37.54a.62.62 0 0 1 .47-.18h.9a1.51 1.51 0 0 1 1.11.51l4.31 4.13 1.68 1.5a1.3 1.3 0 0 0 .46.18c.28 0 .42-.37.42-1.1V38a.69.69 0 0 1 .16-.45.58.58 0 0 1 .46-.18h.72a.65.65 0 0 1 .46.16.62.62 0 0 1 .18.47v8.63a.67.67 0 0 1-.16.45.58.58 0 0 1-.47.18h-.86a1.74 1.74 0 0 1-1.32-.72l-5.78-5.46a1 1 0 0 0-.44-.16q-.42 0-.42 1.08v4.63a.67.67 0 0 1-.16.45.58.58 0 0 1-.47.18H116a.65.65 0 0 1-.46-.16.62.62 0 0 1-.18-.47V38a.68.68 0 0 1 .17-.46zM134.48 38a.65.65 0 0 1 .16-.46.62.62 0 0 1 .47-.18h10.19a.65.65 0 0 1 .46.16.62.62 0 0 1 .18.47v.72a.67.67 0 0 1-.16.45.58.58 0 0 1-.47.18h-10.2a.62.62 0 0 1-.45-.16.58.58 0 0 1-.18-.47zm0 3.39a.57.57 0 0 1 .51-.62h10.31a.68.68 0 0 1 .45.15.58.58 0 0 1 .18.46v.73a.67.67 0 0 1-.16.45.58.58 0 0 1-.47.18h-10.19a.65.65 0 0 1-.46-.16.62.62 0 0 1-.18-.47zm0 4.47a.61.61 0 0 1 .16-.45.64.64 0 0 1 .47-.17h10.19a.67.67 0 0 1 .45.16.58.58 0 0 1 .18.47v.76a.62.62 0 0 1-.16.45.58.58 0 0 1-.47.18h-10.19a.65.65 0 0 1-.46-.16.58.58 0 0 1-.18-.47zM153.75 37.54a.62.62 0 0 1 .47-.18h10.19a.65.65 0 0 1 .46.16.62.62 0 0 1 .18.47v.72a.67.67 0 0 1-.16.45.58.58 0 0 1-.47.18h-2.84c-.67 0-1 .13-1.13.38a.83.83 0 0 0-.1.34 5 5 0 0 0 0 .55v6a.67.67 0 0 1-.16.45.58.58 0 0 1-.47.18H159a.65.65 0 0 1-.46-.16.62.62 0 0 1-.18-.48v-6c0-.67-.12-1-.37-1.13a1.82 1.82 0 0 0-.89-.14h-2.84a.62.62 0 0 1-.45-.16.58.58 0 0 1-.18-.47V38a.64.64 0 0 1 .12-.46z" fill="#010001"></path><path d="M85.75 31.84l-8.43.16c-.61-5.2.72-5.89-2.43-9.41-1.48-1.66-4.15-4.51-4.67-7.57-2.75-16.26 24.37-17.11 22.69-.52-.32 3.13-3.09 6.36-4.45 7.88-3.65 4.06-1.88 3.79-2.72 9.46zM78.47.43C67.83 3.27 63.83 15.2 72.83 23.49c4.33 4-.32 9.18 4.51 10.57a37.75 37.75 0 0 0 7.88.1c5.48-1 1-6.32 4.69-10.39 2.24-2.5 5.44-5.31 5.4-10.42C95.22 5.41 87.07-1.86 78.47.43z" fill="#f3e03a"></path><path d="M87.37 18.12s1.5 2.44 2.9-2.11c1.22-4-.75-11.34-5.51-11.29-.21 3.53 2.14 2.38 3.31 5.87 1.39 4.15-.95 5.41-.7 7.53z" fill="#f3e03a"></path>
		</symbol>
	
		<symbol id="mark" viewBox="0 0 43 43">
			<defs><style>.cls-1{fill:#fff;stroke:#000;stroke-width:10px}</style></defs><circle id="Эллипс_1" data-name="Эллипс 1" class="cls-1" cx="21.5" cy="21.5" r="16.5"></circle>
		</symbol>
	
		<symbol id="marker" viewBox="0 0 512 512">
			<path d="M256 0C156.75 0 76 80.75 76 180a179.62 179.62 0 0 0 26.87 94.65l142.88 230.26A15 15 0 0 0 258.5 512h.12a15 15 0 0 0 12.75-7.29l139.24-232.49A179.78 179.78 0 0 0 436 180C436 80.75 355.25 0 256 0zm128.87 256.82l-126.6 211.37-129.9-209.34A149.79 149.79 0 0 1 105.8 180c0-82.71 67.49-150.2 150.2-150.2S406.1 97.29 406.1 180a149.9 149.9 0 0 1-21.23 76.82z"></path><path d="M256 90a90 90 0 1 0 90 90 90.1 90.1 0 0 0-90-90zm0 150.2a60.2 60.2 0 1 1 60.1-60.2 60.24 60.24 0 0 1-60.1 60.2z"></path>
		</symbol>
	
		<symbol id="phone" viewBox="0 0 482.6 482.6">
			<path d="M98.34 320.8c47.6 56.9 104.9 101.7 170.3 133.4 24.9 11.8 58.2 25.8 95.3 28.2 2.3.1 4.5.2 6.8.2 24.9 0 44.9-8.6 61.2-26.3a2.18 2.18 0 0 0 .4-.5c5.8-7 12.4-13.3 19.3-20 4.7-4.5 9.5-9.2 14.1-14 21.3-22.2 21.3-50.4-.2-71.9l-60.1-60.1c-10.2-10.6-22.4-16.2-35.2-16.2s-25.1 5.6-35.6 16.1l-35.8 35.8c-3.3-1.9-6.7-3.6-9.9-5.2a123.66 123.66 0 0 1-11-6c-32.6-20.7-62.2-47.7-90.5-82.4-14.3-18.1-23.9-33.3-30.6-48.8 9.4-8.5 18.2-17.4 26.7-26.1 3-3.1 6.1-6.2 9.2-9.3 10.8-10.8 16.6-23.3 16.6-36s-5.7-25.2-16.6-36l-29.8-29.8c-3.5-3.5-6.8-6.9-10.2-10.4-6.6-6.8-13.5-13.8-20.3-20.1C122.14 5.3 110 0 97.24 0s-24.9 5.3-35.6 15.5l-37.4 37.4a76.84 76.84 0 0 0-22.9 49.2c-1.9 23.9 2.5 49.3 13.9 80 17.5 47.5 43.9 91.6 83.1 138.7zm-72.6-216.6a52.89 52.89 0 0 1 15.9-34L78.84 33c5.8-5.6 12.2-8.5 18.4-8.5s12.3 2.9 18 8.7c6.7 6.2 13 12.7 19.8 19.6 3.4 3.5 6.9 7 10.4 10.6l29.8 29.8c6.2 6.2 9.4 12.5 9.4 18.7s-3.2 12.5-9.4 18.7c-3.1 3.1-6.2 6.3-9.3 9.4-9.3 9.4-18 18.3-27.6 26.8l-.5.5c-8.3 8.3-7 16.2-5 22.2.1.3.2.5.3.8 7.7 18.5 18.4 36.1 35.1 57.1 30 37 61.6 65.7 96.4 87.8a143.14 143.14 0 0 0 13.2 7.2 123.66 123.66 0 0 1 11 6c.4.2.7.4 1.1.6a20.9 20.9 0 0 0 9.7 2.5c8 0 13.2-5.1 14.9-6.8l37.4-37.4c5.8-5.8 12.1-8.9 18.3-8.9 7.6 0 13.8 4.7 17.7 8.9l60.3 60.2c12 12 11.9 25-.3 37.7-4.2 4.5-8.6 8.8-13.3 13.3-7 6.8-14.3 13.8-20.9 21.7-11.5 12.4-25.2 18.2-42.9 18.2-1.7 0-3.5-.1-5.2-.2-32.8-2.1-63.3-14.9-86.2-25.8-62.2-30.1-116.8-72.8-162.1-127-37.3-44.9-62.4-86.7-79-131.5-10.34-27.5-14.2-49.6-12.6-69.7z"></path>
		</symbol>
	
		<symbol id="smartphone" viewBox="0 0 304.56 472.81">
			<path d="M274.62 0H29.93A30 30 0 0 0 0 29.93v413a30 30 0 0 0 29.93 29.93h244.69a30 30 0 0 0 29.93-29.93v-413A30 30 0 0 0 274.62 0zM15 75.24h274.55v312.68H15zM29.93 15h244.69a15 15 0 0 1 14.93 14.93v35.31H15V29.93A15 15 0 0 1 29.93 15zm244.69 442.81H29.93A15 15 0 0 1 15 442.88v-45h274.55v45a15 15 0 0 1-14.93 14.93z"></path><path d="M152.28 404.55a24.57 24.57 0 1 0 24.59 24.57 24.6 24.6 0 0 0-24.59-24.57zm0 39.13a14.57 14.57 0 1 1 14.59-14.56 14.58 14.58 0 0 1-14.59 14.56zM118.28 47.65h68a5 5 0 0 0 0-10h-68a5 5 0 0 0 0 10zM100.28 47.65a5 5 0 0 0 5-5 5.1 5.1 0 0 0-1.47-3.55 5 5 0 0 0-8.53 3.55 5 5 0 0 0 5 5z"></path>
		</symbol>
	
		<symbol id="time" viewBox="0 0 510 510">
			<path class="a" d="M255 0C114.75 0 0 114.75 0 255s114.75 255 255 255 255-114.75 255-255S395.25 0 255 0zm0 459c-112.2 0-204-91.8-204-204S142.8 51 255 51s204 91.8 204 204-91.8 204-204 204z"></path><path class="a" d="M267.75 127.5H229.5v153l132.6 81.6 20.4-33.15-114.75-68.85V127.5z"></path>
		</symbol>
	
		<symbol id="user" viewBox="0 0 563.43 536.6">
			<path d="M280.79 301.14a150.82 150.82 0 0 0 150.8-150.8C431.59 67.08 364.05 0 280.79 0S130 67.54 130 150.34s67.52 150.8 150.79 150.8zm0-261.82c61.06 0 111 50 111 111s-50 111-111 111-111-50-111-111 49.94-111 111-111zM19.89 536.6h523.65a19.74 19.74 0 0 0 19.89-19.89c0-104.08-84.65-189.2-189.2-189.2h-185C85.12 327.51 0 412.16 0 516.71a19.74 19.74 0 0 0 19.89 19.89zM189.2 367.29h185a149.32 149.32 0 0 1 148 129.53H41.17c9.71-72.63 72.16-129.53 148.03-129.53z"></path>
		</symbol>
	
</svg>
