<svg xmlns="http://www.w3.org/2000/svg" viewBox="0 0 28.71 29.12">
    <path d="M21.5,6.15a2,2,0,0,0,2-2V2a2,2,0,0,0-4,0V4.13A2,2,0,0,0,21.5,6.15Z"/>
    <path d="M28.67,3.49H24.61v1a3.08,3.08,0,1,1-6.15,0v-1H10.25v1a3.08,3.08,0,1,1-6.15,0v-1L0,3.44V29.12H28.71Zm-2,23.59H2.05V10.67H26.66V27.08Z"/>
    <path d="M7.15,6.15a2,2,0,0,0,2-2V2a2,2,0,1,0-4,0V4.13A2,2,0,0,0,7.15,6.15Z"/>
    <rect x="10.26" y="12.87" width="3.23" height="2.85"/>
    <rect x="15.48" y="12.87" width="3.23" height="2.85"/>
    <rect x="20.33" y="12.87" width="3.23" height="2.85"/>
    <rect x="10.26" y="17.61" width="3.23" height="2.85"/>
    <rect x="15.48" y="17.61" width="3.23" height="2.85"/>
    <rect x="20.33" y="17.61" width="3.23" height="2.85"/>
    <rect x="10.26" y="22.44" width="3.23" height="2.85"/>
    <rect x="5.13" y="17.61" width="3.23" height="2.85"/>
    <rect x="5.13" y="22.44" width="3.23" height="2.85"/>
    <rect x="15.48" y="22.44" width="3.23" height="2.85"/>
    <rect x="20.33" y="22.44" width="3.23" height="2.85"/>
</svg>