<svg xmlns="http://www.w3.org/2000/svg" viewBox="0 0 304.56 472.81">
    <path d="M358.75,0H114.06A30,30,0,0,0,84.13,29.93v413a30,30,0,0,0,29.93,29.93H358.75a30,30,0,0,0,29.93-29.93V29.93A30,30,0,0,0,358.75,0ZM99.13,75.24H373.68V387.92H99.13ZM114.06,15H358.75a15,15,0,0,1,14.93,14.93V65.24H99.13V29.93A15,15,0,0,1,114.06,15ZM358.75,457.81H114.06a15,15,0,0,1-14.93-14.93v-45H373.68v45A15,15,0,0,1,358.75,457.81Z"
          transform="translate(-84.13)"/>
    <path d="M236.41,404.55A24.57,24.57,0,1,0,261,429.12,24.6,24.6,0,0,0,236.41,404.55Zm0,39.13A14.57,14.57,0,1,1,251,429.12,14.58,14.58,0,0,1,236.41,443.68Z"
          transform="translate(-84.13)"/>
    <path d="M202.41,47.65h68a5,5,0,0,0,0-10h-68a5,5,0,0,0,0,10Z" transform="translate(-84.13)"/>
    <path d="M184.41,47.65a5,5,0,0,0,5-5,5.1,5.1,0,0,0-1.47-3.55,5,5,0,0,0-8.53,3.55,5,5,0,0,0,5,5Z"
          transform="translate(-84.13)"/>
</svg>