<svg xmlns="http://www.w3.org/2000/svg" viewBox="0 0 563.43 536.6">
    <path d="M280.79,301.14a150.82,150.82,0,0,0,150.8-150.8C431.59,67.08,364.05,0,280.79,0S130,67.54,130,150.34,197.52,301.14,280.79,301.14Zm0-261.82c61.06,0,111,50,111,111s-50,111-111,111-111-50-111-111S219.73,39.32,280.79,39.32Z"/>
    <path d="M19.89,536.6H543.54a19.74,19.74,0,0,0,19.89-19.89c0-104.08-84.65-189.2-189.2-189.2h-185C85.12,327.51,0,412.16,0,516.71A19.74,19.74,0,0,0,19.89,536.6ZM189.2,367.29h185a149.32,149.32,0,0,1,148,129.53H41.17C50.88,424.19,113.33,367.29,189.2,367.29Z"/>
</svg>